<?xml version="1.0" standalone="no"?>
<!DOCTYPE svg PUBLIC "-//W3C//DTD SVG 20010904//EN"
 "http://www.w3.org/TR/2001/REC-SVG-20010904/DTD/svg10.dtd">
<svg version="1.0" xmlns="http://www.w3.org/2000/svg"
 width="300.000000pt" height="300.000000pt" viewBox="0 0 300.000000 300.000000"
 preserveAspectRatio="xMidYMid meet">
<metadata>
Created by potrace 1.16, written by Peter Selinger 2001-2019
</metadata>
<g transform="translate(0.000000,300.000000) scale(0.100000,-0.100000)"
fill="#000000" stroke="none">
<path d="M895 2730 l-560 -228 0 -1002 0 -1002 540 -219 c297 -120 548 -223
557 -228 21 -13 80 -14 93 -3 6 5 254 107 553 227 l542 218 0 1007 0 1007
-562 227 c-310 124 -572 226 -583 225 -11 -1 -272 -104 -580 -229z m1127 -51
c288 -116 529 -213 536 -216 10 -4 12 -203 10 -965 l-3 -959 -541 -218 -542
-218 -243 98 c-134 54 -377 151 -539 217 l-295 120 0 962 0 962 525 213 c289
117 535 214 547 214 13 1 258 -94 545 -210z"/>
<path d="M1430 2550 c0 -140 4 -220 10 -220 6 0 10 80 10 220 0 140 -4 220
-10 220 -6 0 -10 -80 -10 -220z"/>
<path d="M1520 2550 c0 -140 4 -220 10 -220 6 0 10 80 10 220 0 140 -4 220
-10 220 -6 0 -10 -80 -10 -220z"/>
<path d="M1330 2530 c0 -171 2 -200 15 -200 13 0 15 29 15 200 0 171 -2 200
-15 200 -13 0 -15 -29 -15 -200z"/>
<path d="M1610 2530 c0 -127 4 -200 10 -200 6 0 10 73 10 200 0 127 -4 200
-10 200 -6 0 -10 -73 -10 -200z"/>
<path d="M1247 2693 c-11 -11 -8 -363 3 -363 6 0 10 68 10 185 0 102 -1 185
-3 185 -2 0 -7 -3 -10 -7z"/>
<path d="M1710 2510 c0 -113 4 -180 10 -180 6 0 10 67 10 180 0 113 -4 180
-10 180 -6 0 -10 -67 -10 -180z"/>
<path d="M1150 2495 c0 -103 4 -165 10 -165 6 0 10 62 10 165 0 103 -4 165
-10 165 -6 0 -10 -62 -10 -165z"/>
<path d="M1800 2496 c0 -104 4 -166 10 -166 6 0 10 60 10 159 0 96 -4 162 -10
166 -7 4 -10 -52 -10 -159z"/>
<path d="M1057 2613 c-4 -3 -7 -69 -7 -145 0 -116 2 -138 15 -138 13 0 15 23
15 145 0 133 -4 157 -23 138z"/>
<path d="M1890 2475 c0 -90 4 -145 10 -145 6 0 10 55 10 145 0 90 -4 145 -10
145 -6 0 -10 -55 -10 -145z"/>
<path d="M960 2455 c0 -77 4 -125 10 -125 6 0 10 48 10 125 0 77 -4 125 -10
125 -6 0 -10 -48 -10 -125z"/>
<path d="M1980 2456 c0 -106 2 -126 15 -126 13 0 15 18 13 122 -2 86 -7 123
-15 126 -10 3 -13 -26 -13 -122z"/>
<path d="M877 2543 c-11 -11 -8 -213 3 -213 6 0 10 43 10 110 0 110 -1 116
-13 103z"/>
<path d="M2080 2435 c0 -63 4 -105 10 -105 6 0 10 42 10 105 0 63 -4 105 -10
105 -6 0 -10 -42 -10 -105z"/>
<path d="M780 2420 c0 -53 4 -90 10 -90 6 0 10 37 10 90 0 53 -4 90 -10 90 -6
0 -10 -37 -10 -90z"/>
<path d="M2170 2421 c0 -54 4 -91 10 -91 6 0 10 35 10 84 0 47 -4 88 -10 91
-6 4 -10 -27 -10 -84z"/>
<path d="M687 2463 c-11 -10 -8 -133 3 -133 6 0 10 30 10 70 0 70 -1 76 -13
63z"/>
<path d="M2260 2401 c0 -57 3 -71 15 -71 13 0 15 12 13 67 -2 42 -8 68 -15 71
-10 3 -13 -15 -13 -67z"/>
<path d="M590 2380 c0 -27 5 -50 10 -50 6 0 10 23 10 50 0 28 -4 50 -10 50 -5
0 -10 -22 -10 -50z"/>
<path d="M2360 2380 c0 -27 5 -50 10 -50 6 0 10 23 10 50 0 28 -4 50 -10 50
-5 0 -10 -22 -10 -50z"/>
<path d="M507 2393 c-11 -10 -8 -63 3 -63 6 0 10 16 10 35 0 36 -2 40 -13 28z"/>
<path d="M2450 2366 c0 -20 5 -36 10 -36 6 0 10 13 10 29 0 17 -4 33 -10 36
-6 4 -10 -8 -10 -29z"/>
<path d="M1330 2266 c-156 -33 -282 -100 -397 -209 -102 -97 -191 -237 -217
-339 l-6 -28 98 0 98 0 28 57 c124 254 413 392 686 327 168 -39 329 -164 400
-311 l35 -72 48 0 c41 -1 47 2 47 19 0 11 5 20 10 20 6 0 10 -9 10 -20 0 -17
7 -20 40 -20 33 0 40 3 40 19 0 33 -97 213 -150 278 -96 118 -250 219 -405
264 -91 26 -275 34 -365 15z m55 -65 c7 -12 -12 -24 -25 -16 -11 7 -4 25 10
25 5 0 11 -4 15 -9z m75 -1 c0 -5 -7 -10 -15 -10 -8 0 -15 5 -15 10 0 6 7 10
15 10 8 0 15 -4 15 -10z m80 0 c0 -5 -7 -10 -15 -10 -8 0 -15 5 -15 10 0 6 7
10 15 10 8 0 15 -4 15 -10z m80 -11 c0 -5 -7 -9 -15 -9 -8 0 -15 7 -15 15 0 9
6 12 15 9 8 -4 15 -10 15 -15z m-312 -11 c-6 -18 -28 -21 -28 -4 0 9 7 16 16
16 9 0 14 -5 12 -12z m382 -3 c0 -8 -7 -15 -15 -15 -8 0 -15 7 -15 15 0 8 7
15 15 15 8 0 15 -7 15 -15z m-450 -26 c0 -5 -7 -9 -15 -9 -15 0 -20 12 -9 23
8 8 24 -1 24 -14z m525 2 c10 -17 -12 -21 -25 -6 -10 12 -10 15 3 15 9 0 18
-4 22 -9z m-605 -41 c-18 -11 -24 -6 -16 16 5 14 9 15 19 5 9 -9 9 -14 -3 -21z
m675 11 c7 -12 -12 -24 -25 -16 -11 7 -4 25 10 25 5 0 11 -4 15 -9z m-735 -42
c0 -5 -7 -9 -15 -9 -15 0 -20 12 -9 23 8 8 24 -1 24 -14z m800 -5 c0 -9 -5
-14 -12 -12 -18 6 -21 28 -4 28 9 0 16 -7 16 -16z m-862 -36 c-6 -18 -28 -21
-28 -4 0 9 7 16 16 16 9 0 14 -5 12 -12z m922 -14 c0 -16 -16 -19 -25 -4 -8
13 4 32 16 25 5 -4 9 -13 9 -21z m-980 -38 c0 -8 -4 -17 -9 -21 -12 -7 -24 12
-16 25 9 15 25 12 25 -4z m1038 -14 c2 -7 -3 -12 -12 -12 -9 0 -16 7 -16 16 0
17 22 14 28 -4z m-1088 -47 c0 -8 -7 -15 -15 -15 -16 0 -20 12 -8 23 11 12 23
8 23 -8z m1138 -14 c3 -8 -1 -12 -9 -9 -7 2 -15 10 -17 17 -3 8 1 12 9 9 7 -2
15 -10 17 -17z m-1185 -56 c-3 -8 -9 -15 -14 -15 -10 0 -12 24 -3 33 11 11 24
-3 17 -18z m1225 -4 c3 -8 -1 -12 -9 -9 -7 2 -15 10 -17 17 -3 8 1 12 9 9 7
-2 15 -10 17 -17z m-1258 -55 c0 -8 -4 -17 -9 -21 -12 -7 -24 12 -16 25 9 15
25 12 25 -4z m1290 -11 c0 -8 -4 -15 -10 -15 -5 0 -10 7 -10 15 0 8 5 15 10
15 6 0 10 -7 10 -15z m-1320 -59 c0 -17 -14 -29 -23 -20 -8 8 3 34 14 34 5 0
9 -6 9 -14z"/>
<path d="M1068 1653 c226 -2 598 -2 825 0 226 1 41 2 -413 2 -454 0 -639 -1
-412 -2z"/>
<path d="M1012 1554 c4 -21 22 -23 26 -1 2 10 -3 17 -13 17 -10 0 -15 -6 -13
-16z"/>
<path d="M810 1547 c-18 -9 -26 -24 -32 -56 -9 -53 -5 -61 32 -61 60 0 86 29
28 31 l-33 1 35 11 c33 10 33 11 10 15 -42 6 -47 22 -7 22 37 0 42 5 31 34 -7
19 -30 20 -64 3z"/>
<path d="M1735 1517 l-8 -42 -9 38 c-6 20 -14 37 -18 37 -17 0 -39 -32 -46
-65 -10 -58 19 -79 32 -22 l7 32 14 -32 c24 -60 63 -28 63 52 0 51 -26 53 -35
2z"/>
<path d="M1930 1547 c-18 -9 -26 -24 -32 -56 -9 -53 -5 -61 32 -61 60 0 86 29
28 31 l-33 1 35 11 c33 10 33 11 10 15 -42 6 -47 22 -7 22 37 0 42 5 31 34 -7
19 -30 20 -64 3z"/>
<path d="M2050 1547 c-16 -8 -25 -22 -26 -37 -1 -14 -5 -33 -9 -42 -4 -9 -4
-22 0 -28 9 -15 68 -12 91 5 18 13 16 14 -21 16 l-40 1 35 11 c33 10 33 11 10
15 -42 6 -47 22 -7 22 37 0 42 5 31 34 -7 19 -30 20 -64 3z"/>
<path d="M704 1542 c-6 -4 -14 -28 -18 -53 -6 -38 -4 -48 9 -53 33 -12 55 -7
55 14 0 11 -7 20 -15 20 -14 0 -14 4 0 36 8 20 15 38 15 40 0 7 -35 4 -46 -4z"/>
<path d="M898 1526 c-4 -20 -1 -26 13 -26 15 0 16 -4 8 -32 -5 -18 -9 -34 -9
-35 0 -2 9 -3 20 -3 13 0 20 7 20 19 0 30 11 51 26 51 8 0 14 9 14 20 0 15 -7
20 -29 20 -16 0 -36 3 -44 6 -10 3 -16 -3 -19 -20z"/>
<path d="M1062 1534 c-30 -21 -28 -42 6 -56 l27 -12 -32 -4 c-23 -2 -30 -7
-26 -18 7 -19 53 -18 81 2 30 21 28 31 -10 48 l-33 14 33 1 c25 1 32 5 32 21
0 25 -45 28 -78 4z"/>
<path d="M1203 1543 c-28 -11 -7 -113 23 -113 22 0 74 55 74 78 0 11 -7 22
-15 26 -10 4 -18 -6 -26 -34 -15 -49 -33 -41 -25 11 6 39 0 45 -31 32z"/>
<path d="M1390 1540 c-8 -5 -22 -7 -32 -4 -20 6 -48 -31 -48 -63 0 -12 10 -29
21 -37 50 -35 115 47 81 101 -5 8 -13 9 -22 3z m0 -43 c0 -18 -27 -53 -35 -46
-7 8 15 59 27 59 4 0 8 -6 8 -13z"/>
<path d="M1455 1538 c-20 -60 -24 -93 -12 -100 21 -13 55 -9 61 8 9 22 8 24
-9 24 -18 0 -19 2 -1 45 15 34 15 35 -10 35 -13 0 -26 -6 -29 -12z"/>
<path d="M1554 1540 c-14 -6 -23 -21 -27 -47 -11 -63 -11 -62 42 -60 49 2 50
3 60 42 6 23 6 44 1 49 -15 15 -40 -2 -40 -28 0 -23 -16 -44 -26 -33 -3 2 2
23 9 46 15 43 14 45 -19 31z"/>
<path d="M1795 1532 c-9 -23 -6 -32 10 -32 18 0 17 3 6 -38 -8 -28 -7 -32 9
-32 19 0 30 19 30 51 0 10 6 19 14 19 7 0 16 9 19 19 4 16 -2 20 -39 23 -30 2
-45 -1 -49 -10z"/>
<path d="M2157 1543 c-3 -5 -7 -29 -11 -55 -7 -49 8 -76 26 -45 8 15 11 14 29
-4 17 -17 23 -18 36 -7 15 12 15 13 0 16 -22 5 -21 14 3 30 25 15 25 34 2 55
-19 17 -77 23 -85 10z m68 -42 c3 -6 -4 -15 -15 -21 -16 -8 -20 -8 -20 3 0 25
23 36 35 18z"/>
<path d="M660 1310 c0 -7 280 -10 820 -10 540 0 820 3 820 10 0 7 -280 10
-820 10 -540 0 -820 -3 -820 -10z"/>
<path d="M715 1248 c15 -51 78 -175 119 -232 111 -156 262 -256 466 -311 181
-48 367 -24 554 72 75 39 108 64 191 147 87 87 107 114 148 196 26 52 50 107
53 123 l6 27 -98 0 -99 0 -23 -49 c-96 -210 -307 -344 -542 -345 -113 -1 -179
14 -280 62 -98 46 -220 165 -269 265 l-34 67 -49 0 c-37 0 -48 -3 -46 -14 2
-8 -1 -14 -7 -13 -5 1 -9 8 -9 15 1 8 -13 12 -43 12 -41 0 -44 -2 -38 -22z
m1455 -2 c0 -17 -14 -29 -23 -20 -8 8 3 34 14 34 5 0 9 -6 9 -14z m-1328 -71
c0 -5 -5 -11 -11 -13 -6 -2 -11 4 -11 13 0 9 5 15 11 13 6 -2 11 -8 11 -13z
m1298 -3 c0 -13 -12 -22 -22 -16 -10 6 -1 24 13 24 5 0 9 -4 9 -8z m-1260 -68
c0 -8 -4 -14 -9 -14 -11 0 -22 26 -14 34 9 9 23 -3 23 -20z m1216 -21 c-11
-11 -19 6 -11 24 8 17 8 17 12 0 3 -10 2 -21 -1 -24z m-1176 -38 c0 -8 -4 -15
-10 -15 -5 0 -10 7 -10 15 0 8 5 15 10 15 6 0 10 -7 10 -15z m1140 -4 c0 -12
-20 -25 -27 -18 -7 7 6 27 18 27 5 0 9 -4 9 -9z m-1090 -56 c0 -8 -4 -15 -10
-15 -5 0 -10 7 -10 15 0 8 5 15 10 15 6 0 10 -7 10 -15z m1040 -4 c0 -12 -20
-25 -27 -18 -7 7 6 27 18 27 5 0 9 -4 9 -9z m-982 -49 c2 -7 -3 -12 -12 -12
-9 0 -16 7 -16 16 0 17 22 14 28 -4z m927 -1 c7 -12 -12 -24 -25 -16 -11 7 -4
25 10 25 5 0 11 -4 15 -9z m-865 -47 c0 -9 -5 -14 -12 -12 -18 6 -21 28 -4 28
9 0 16 -7 16 -16z m796 -9 c-3 -9 -11 -13 -16 -10 -8 5 -7 11 1 21 14 18 24
11 15 -11z m-728 -33 c2 -7 -3 -12 -12 -12 -9 0 -16 7 -16 16 0 17 22 14 28
-4z m662 -12 c-18 -11 -24 -6 -16 16 5 14 9 15 19 5 9 -9 9 -14 -3 -21z m-592
-18 c2 -7 -3 -12 -12 -12 -9 0 -16 7 -16 16 0 17 22 14 28 -4z m530 -4 c-6
-18 -28 -21 -28 -4 0 9 7 16 16 16 9 0 14 -5 12 -12z m-458 -24 c0 -17 -22
-14 -28 4 -2 7 3 12 12 12 9 0 16 -7 16 -16z m380 1 c0 -8 -7 -15 -15 -15 -16
0 -20 12 -8 23 11 12 23 8 23 -8z m-300 -15 c0 -5 -7 -10 -15 -10 -8 0 -15 5
-15 10 0 6 7 10 15 10 8 0 15 -4 15 -10z m228 -2 c-6 -18 -28 -21 -28 -4 0 9
7 16 16 16 9 0 14 -5 12 -12z m-158 -8 c0 -5 -7 -10 -15 -10 -8 0 -15 5 -15
10 0 6 7 10 15 10 8 0 15 -4 15 -10z m80 0 c0 -5 -7 -10 -15 -10 -8 0 -15 5
-15 10 0 6 7 10 15 10 8 0 15 -4 15 -10z"/>
<path d="M500 605 c0 -19 5 -35 10 -35 6 0 10 16 10 35 0 19 -4 35 -10 35 -5
0 -10 -16 -10 -35z"/>
<path d="M590 591 c0 -28 5 -53 10 -56 6 -4 10 15 10 49 0 31 -4 56 -10 56 -5
0 -10 -22 -10 -49z"/>
<path d="M687 633 c-11 -10 -8 -131 3 -138 6 -4 10 22 10 69 0 76 -1 82 -13
69z"/>
<path d="M780 550 c0 -53 4 -90 10 -90 6 0 10 37 10 90 0 53 -4 90 -10 90 -6
0 -10 -37 -10 -90z"/>
<path d="M870 530 c0 -67 4 -110 10 -110 6 0 10 43 10 110 0 67 -4 110 -10
110 -6 0 -10 -43 -10 -110z"/>
<path d="M960 516 c0 -73 4 -127 10 -131 6 -4 10 40 10 124 0 81 -4 131 -10
131 -6 0 -10 -48 -10 -124z"/>
<path d="M1056 633 c-3 -3 -6 -69 -6 -145 0 -116 2 -138 15 -138 13 0 15 22
15 139 0 127 -6 162 -24 144z"/>
<path d="M1150 475 c0 -103 4 -165 10 -165 6 0 10 62 10 165 0 103 -4 165 -10
165 -6 0 -10 -62 -10 -165z"/>
<path d="M1240 455 c0 -117 4 -185 10 -185 6 0 10 68 10 185 0 117 -4 185 -10
185 -6 0 -10 -68 -10 -185z"/>
<path d="M1335 628 c-3 -8 -4 -99 -3 -202 2 -141 6 -190 16 -194 15 -5 18 393
2 403 -6 3 -12 0 -15 -7z"/>
<path d="M1430 421 c0 -136 4 -222 10 -226 7 -4 10 72 10 219 0 144 -4 226
-10 226 -6 0 -10 -80 -10 -219z"/>
<path d="M1520 414 c0 -147 3 -223 10 -219 6 4 10 90 10 226 0 139 -4 219 -10
219 -6 0 -10 -82 -10 -226z"/>
<path d="M1617 633 c-11 -11 -8 -391 3 -398 7 -4 10 65 10 199 0 113 -1 206
-3 206 -2 0 -7 -3 -10 -7z"/>
<path d="M1710 454 c0 -121 3 -183 10 -179 14 8 14 365 0 365 -6 0 -10 -69
-10 -186z"/>
<path d="M1800 475 c0 -103 4 -165 10 -165 6 0 10 62 10 165 0 103 -4 165 -10
165 -6 0 -10 -62 -10 -165z"/>
<path d="M1890 495 c0 -90 4 -145 10 -145 6 0 10 55 10 145 0 90 -4 145 -10
145 -6 0 -10 -55 -10 -145z"/>
<path d="M1985 629 c-10 -25 -1 -239 10 -242 14 -3 19 233 6 246 -7 7 -12 5
-16 -4z"/>
<path d="M2080 529 c0 -71 4 -108 10 -104 6 3 10 52 10 111 0 63 -4 104 -10
104 -6 0 -10 -44 -10 -111z"/>
<path d="M2170 550 c0 -53 4 -90 10 -90 6 0 10 37 10 90 0 53 -4 90 -10 90 -6
0 -10 -37 -10 -90z"/>
<path d="M2267 634 c-4 -4 -7 -36 -7 -71 0 -47 3 -64 13 -61 7 3 13 27 15 63
3 55 -6 84 -21 69z"/>
<path d="M2360 584 c0 -34 4 -53 10 -49 6 3 10 28 10 56 0 27 -4 49 -10 49 -5
0 -10 -25 -10 -56z"/>
<path d="M2450 605 c0 -19 5 -35 10 -35 6 0 10 16 10 35 0 19 -4 35 -10 35 -5
0 -10 -16 -10 -35z"/>
</g>
</svg>
